<svg xmlns="http://www.w3.org/2000/svg" version="1.0" width="707" height="530"><path d="M201 463h463l29 57H172" fill="#ff99cb"/><path d="M232 404h402l30 59H201" fill="#ffcb99"/><path d="M264 341h338l32 63H232" fill="#feff99"/><path d="M297 277h273l32 64H264" fill="#cefecc"/><path d="M331 211h205l34 66H297" fill="#cff"/><path d="M367 140h133l36 71H331" fill="#ca9bfb"/><path d="M434 10l66 130H367" fill="#e1e1e1"/><path d="M434 10L172 520h521zM14 140h486M14 211h522M14 277h556M14 341h588M14 404h620M14 463h650M14 520h158" fill="none" stroke="#000" stroke-width="4"/><text font-size="25" font-family="Arial"><tspan x="16" y="125">refuting the central point</tspan> <tspan x="16" y="196">refutation</tspan> <tspan x="16" y="262">counterargument</tspan> <tspan x="16" y="326">contradiction</tspan> <tspan x="16" y="389">responding to tone</tspan> <tspan x="16" y="448">ad hominem</tspan> <tspan x="16" y="505">name-calling</tspan></text><text font-size="17" font-family="Arial" text-anchor="middle"><tspan x="437" y="90">explicitly</tspan> <tspan x="437" y="110">refutes the</tspan> <tspan x="437" y="130">central point</tspan> <tspan x="437" y="162">finds the mistake</tspan> <tspan x="437" y="182">and explains why it&apos;s</tspan> <tspan x="437" y="202">mistaken using quotes</tspan> <tspan x="437" y="230">contradicts and then</tspan> <tspan x="437" y="250">backs it up with reasoning</tspan> <tspan x="437" y="270">and/or supporting evidence</tspan> <tspan x="437" y="305">states the opposing case</tspan> <tspan x="437" y="325">with little or no supporting evidence</tspan> <tspan x="437" y="365">criticizes the tone of the writing without</tspan> <tspan x="437" y="385">addressing the substance of the argument</tspan> <tspan x="437" y="430">attacks the characteristics or authority of the writer </tspan> <tspan x="437" y="450">without addressing the substance of the argument</tspan> <tspan x="437" y="498">sounds something like, &quot;You are an ass hat.&quot;</tspan></text></svg>