<svg xmlns="http://www.w3.org/2000/svg" version="1.0" width="707" height="530"><path d="M201 463h463l29 57H172" fill="#ff99cb"/><path d="M232 404h402l30 59H201" fill="#ffcb99"/><path d="M264 341h338l32 63H232" fill="#feff99"/><path d="M297 277h273l32 64H264" fill="#cefecc"/><path d="M331 211h205l34 66H297" fill="#cff"/><path d="M367 140h133l36 71H331" fill="#ca9bfb"/><path d="M434 10l66 130H367" fill="#e1e1e1"/><path d="M434 10L172 520h521zM14 140h486M14 211h522M14 277h556M14 341h588M14 404h620M14 463h650M14 520h158" fill="none" stroke="#000" stroke-width="4"/><text font-size="27" font-family="Arial" font-weight="Bold"><tspan x="16" y="125">驳斥主要论点</tspan> <tspan x="16" y="196">驳斥</tspan> <tspan x="16" y="262">相反论点</tspan> <tspan x="16" y="326">对立</tspan> <tspan x="16" y="389">批评语气</tspan> <tspan x="16" y="448">诉诸人身</tspan> <tspan x="16" y="505">气急败坏</tspan></text><text font-size="18" font-family="Arial" font-weight="Bold" text-anchor="middle"><tspan x="437" y="70">提出</tspan> <tspan x="437" y="90">理由</tspan> <tspan x="437" y="110">反对对方</tspan> <tspan x="437" y="130">的主要论点</tspan> <tspan x="437" y="172">提出谬误之处</tspan> <tspan x="437" y="192">并使用引文解释</tspan> <tspan x="437" y="240">提出反对的观点</tspan> <tspan x="437" y="260">并加上理据支持</tspan> <tspan x="437" y="305">提出反对的观点</tspan> <tspan x="437" y="325">但仅提供极少理据支持</tspan> <tspan x="437" y="380">不针对发言内容讨论，而是批评对方的语气</tspan> <tspan x="437" y="440">不针对发言内容讨论，而是批评对方的个人特质</tspan> <tspan x="437" y="498">类似于「你就是个笨蛋」</tspan></text></svg>