<svg xmlns="http://www.w3.org/2000/svg" width="793.701" height="1122.52" viewBox="0 0 210 297"><path fill="#fff" fill-rule="evenodd" stroke="#000" stroke-width=".861" d="M116.96 5.271h88.55v60.338h-88.55z"/><g transform="translate(70.23 -27.638)" fill-rule="evenodd" stroke="#000" stroke-width=".489"><ellipse ry="14.474" rx="15.72" cx="81.337" cy="66.614"/><ellipse ry="14.474" rx="15.72" cx="100.674" cy="66.614" fill="#fff"/><path d="M90.995 55.215a15.72 14.474 0 00-6.041 11.399 15.72 14.474 0 006.051 11.391V55.223a15.72 14.474 0 00-.01-.008zM91.016 55.215a15.72 14.474 0 016.04 11.399 15.72 14.474 0 01-6.05 11.391V55.223a15.72 14.474 0 01.01-.008z" fill="#999"/></g><path d="M161.235 21.236v35.48" fill="none" stroke="#000" stroke-width=".422"/><text y="34.408" x="110.841" style="line-height:1.25;-inkscape-font-specification:SimHei" font-weight="400" font-size="10.583" font-family="SimHei" letter-spacing="0" word-spacing="0" stroke-width=".265" transform="translate(12.435)"><tspan style="-inkscape-font-specification:SimHei" y="34.408" x="110.841">恶</tspan></text><text y="34.284" x="176.093" style="line-height:1.25;-inkscape-font-specification:SimHei" font-weight="400" font-size="10.583" font-family="SimHei" letter-spacing="0" word-spacing="0" stroke-width=".265" transform="translate(12.435)"><tspan style="-inkscape-font-specification:SimHei" y="34.284" x="176.093">善</tspan></text><text y="16.41" x="120.536" style="line-height:1.25" font-weight="400" font-size="10.583" font-family="sans-serif" letter-spacing="0" word-spacing="0" stroke-width=".265" transform="translate(12.435)"><tspan style="-inkscape-font-specification:SimHei" y="16.41" x="120.536" font-size="7.056" font-family="SimHei">认知上的善恶分界</tspan></text><path d="M162.908 40.02l14.165 18.71h0" fill="none" stroke="#000" stroke-width=".422"/><text y="63.389" x="143.457" style="line-height:1.25" font-weight="400" font-size="10.583" font-family="sans-serif" letter-spacing="0" word-spacing="0" stroke-width=".265" transform="translate(12.435)"><tspan style="-inkscape-font-specification:SimHei" y="63.389" x="143.457" font-size="4.939" font-family="SimHei">法律构成的灰色地带</tspan></text><g><g transform="matrix(.87233 0 0 .87233 91.061 61.146)"><path fill="#fff" fill-rule="evenodd" stroke="#000" stroke-width=".698" d="M-99.15 107.584h71.707v48.86H-99.15z"/><g transform="translate(-154.302 74.888)" stroke="#000"><ellipse cy="57.126" cx="81.337" rx="15.72" ry="14.474" fill="#fff" fill-rule="evenodd" stroke-width=".489"/><ellipse cy="57.125" cx="100.674" rx="15.72" ry="14.474" fill="#fff" fill-rule="evenodd" stroke-width=".489"/><path d="M90.995 45.727a15.72 14.474 0 00-6.041 11.399 15.72 14.474 0 006.051 11.39V45.736a15.72 14.474 0 00-.01-.008zM91.016 45.727a15.72 14.474 0 016.04 11.399 15.72 14.474 0 01-6.05 11.39V45.736a15.72 14.474 0 01.01-.008z" fill="#fca" fill-rule="evenodd" stroke-width=".489"/><path d="M91.005 39.386v35.48" fill="none" stroke-width=".422"/></g><text y="75.4" x="123.197" style="line-height:1.25" font-weight="400" font-size="10.583" font-family="sans-serif" letter-spacing="0" word-spacing="0" stroke-width=".265" transform="translate(-203.592 90.753)"><tspan style="-inkscape-font-specification:SimHei" y="75.4" x="123.197" font-size="8.467" font-family="SimHei">守序中立</tspan></text><text y="84.495" x="115.601" style="line-height:1.25" font-weight="400" font-size="10.583" font-family="sans-serif" letter-spacing="0" word-spacing="0" stroke-width=".265" transform="translate(-203.592 90.753)"><tspan style="-inkscape-font-specification:SimHei" y="84.495" x="115.601" font-size="7.056" font-family="SimHei">“奉公守法者”</tspan></text><path fill="#fff" fill-rule="evenodd" stroke="#000" stroke-width=".69813324" d="M-20.956 107.583h71.707v48.86h-71.707z"/><g stroke="#000"><g fill="#fff" fill-rule="evenodd" stroke-width=".489" transform="matrix(1 0 0 1 -76.108 74.888)"><ellipse ry="14.474" rx="15.72" cx="81.337" cy="57.126"/><ellipse ry="14.474" rx="15.72" cx="100.674" cy="57.125"/><path d="M90.995 45.727a15.72 14.474 0 00-6.041 11.399 15.72 14.474 0 006.051 11.39V45.736a15.72 14.474 0 00-.01-.008zM91.016 45.727a15.72 14.474 0 016.04 11.399 15.72 14.474 0 01-6.05 11.39V45.736a15.72 14.474 0 01.01-.008z"/></g><path d="M14.897 114.274v35.48" fill="none" stroke-width=".422"/></g><text y="138.195" x="90.44" style="line-height:1.25" font-weight="400" font-size="9.232" font-family="sans-serif" letter-spacing="0" word-spacing="0" stroke-width=".231" transform="matrix(1.14636 0 0 1.14636 -105.878 7.732)"><tspan style="-inkscape-font-specification:SimHei" y="138.195" x="90.44" font-size="7.386" font-family="SimHei">绝对中立</tspan></text><text y="146.129" x="68.427" style="line-height:1.25" font-weight="400" font-size="9.232" font-family="sans-serif" letter-spacing="0" word-spacing="0" stroke-width=".231" transform="matrix(1.14636 0 0 1.14636 -105.878 7.732)"><tspan style="-inkscape-font-specification:SimHei" y="146.129" x="68.427" font-size="6.155" font-family="SimHei">“没有反应，只是个背景”</tspan></text><path fill="#fff" fill-rule="evenodd" stroke="#000" stroke-width=".698" d="M57.238 107.584h71.707v48.86H57.238z"/><ellipse cy="132.014" cx="83.423" rx="15.72" ry="14.474" fill="#d4ff2a" fill-rule="evenodd" stroke="#000" stroke-width=".489"/><ellipse cy="132.014" cx="102.76" rx="15.72" ry="14.474" fill="#d4ff2a" fill-rule="evenodd" stroke="#000" stroke-width=".489"/><path d="M93.08 120.615a15.72 14.474 0 00-6.04 11.399 15.72 14.474 0 006.051 11.39v-22.781a15.72 14.474 0 00-.01-.008zM93.102 120.615a15.72 14.474 0 016.041 11.399 15.72 14.474 0 01-6.052 11.39v-22.781a15.72 14.474 0 01.011-.008z" fill="#d4ff2a" fill-rule="evenodd" stroke="#000" stroke-width=".489"/><path d="M93.091 114.274v35.48" fill="none" stroke="#000" stroke-width=".422"/><text y="166.153" x="75.993" style="line-height:1.25" font-weight="400" font-size="10.583" font-family="sans-serif" letter-spacing="0" word-spacing="0" stroke-width=".265"><tspan style="-inkscape-font-specification:SimHei" y="166.153" x="75.993" font-size="8.467" font-family="SimHei">混乱中立</tspan></text><text y="175.248" x="78.98" style="line-height:1.25" font-weight="400" font-size="10.583" font-family="sans-serif" letter-spacing="0" word-spacing="0" stroke-width=".265"><tspan style="-inkscape-font-specification:SimHei" y="175.248" x="78.98" font-size="7.056" font-family="SimHei">“疯子”</tspan></text></g><g transform="matrix(.87233 0 0 .87233 50.827 72.421)"><path fill="#fff" fill-rule="evenodd" stroke="#000" stroke-width=".698" d="M-51.946 16.831H19.76v48.86h-71.707z"/><g fill-rule="evenodd" stroke="#000" stroke-width=".489" transform="translate(-107.098 -15.865)"><ellipse cy="57.126" cx="81.337" rx="15.72" ry="14.474" fill="#fff"/><ellipse cy="57.125" cx="100.674" rx="15.72" ry="14.474" fill="#e6e6e6"/><path d="M90.995 45.727a15.72 14.474 0 00-6.041 11.399 15.72 14.474 0 006.051 11.39V45.736a15.72 14.474 0 00-.01-.008zM91.016 45.727a15.72 14.474 0 016.04 11.399 15.72 14.474 0 01-6.05 11.39V45.736a15.72 14.474 0 01.01-.008z" fill="#fff"/></g><path d="M-16.093 23.52V59" fill="none" stroke="#000" stroke-width=".422"/><text style="line-height:1.25" x="123.197" y="75.4" font-weight="400" font-size="10.583" font-family="sans-serif" letter-spacing="0" word-spacing="0" stroke-width=".265" transform="translate(-156.388)"><tspan x="123.197" y="75.4" style="-inkscape-font-specification:SimHei" font-size="8.467" font-family="SimHei">守序善良</tspan></text><text style="line-height:1.25" x="115.601" y="84.495" font-weight="400" font-size="10.583" font-family="sans-serif" letter-spacing="0" word-spacing="0" stroke-width=".265" transform="translate(-156.388)"><tspan x="115.601" y="84.495" style="-inkscape-font-specification:SimHei" font-size="7.056" font-family="SimHei">“精神洁癖者”</tspan></text><path fill="#fff" fill-rule="evenodd" stroke="#000" stroke-width=".69813324" d="M26.248 16.83h71.707v48.86H26.248z"/><g stroke="#000"><g fill-rule="evenodd" stroke-width=".489" transform="matrix(1 0 0 1 -28.904 -15.865)"><ellipse cy="57.126" cx="81.337" rx="15.72" ry="14.474" fill="#fff"/><ellipse cy="57.125" cx="100.674" rx="15.72" ry="14.474" fill="#afafe9"/><path d="M90.995 45.727a15.72 14.474 0 00-6.041 11.399 15.72 14.474 0 006.051 11.39V45.736a15.72 14.474 0 00-.01-.008z" fill="#fff"/><path d="M91.016 45.727a15.72 14.474 0 016.04 11.399 15.72 14.474 0 01-6.05 11.39V45.736a15.72 14.474 0 01.01-.008z" fill="#afafe9"/></g><path d="M62.101 23.52V59" fill="none" stroke-width=".422"/></g><text style="line-height:1.25" x="90.44" y="138.195" font-weight="400" font-size="9.232" font-family="sans-serif" letter-spacing="0" word-spacing="0" stroke-width=".231" transform="matrix(1.14636 0 0 1.14636 -58.674 -83.02)"><tspan x="90.44" y="138.195" style="-inkscape-font-specification:SimHei" font-size="7.386" font-family="SimHei">中立善良</tspan></text><text style="line-height:1.25" x="80.737" y="146.129" font-weight="400" font-size="9.232" font-family="sans-serif" letter-spacing="0" word-spacing="0" stroke-width=".231" transform="matrix(1.14636 0 0 1.14636 -58.674 -83.02)"><tspan x="80.737" y="146.129" style="-inkscape-font-specification:SimHei" font-size="6.155" font-family="SimHei">“善良的正常人”</tspan></text><path fill="#fff" fill-rule="evenodd" stroke="#000" stroke-width=".698" d="M104.442 16.831h71.707v48.86h-71.707z"/><ellipse ry="14.474" rx="15.72" cx="81.337" cy="57.126" transform="translate(49.29 -15.865)" fill="#fff" fill-rule="evenodd" stroke="#000" stroke-width=".489"/><ellipse ry="14.474" rx="15.72" cx="100.674" cy="57.125" transform="translate(49.29 -15.865)" fill="#5f5fd3" fill-rule="evenodd" stroke="#000" stroke-width=".489"/><path d="M140.285 29.862a15.72 14.474 0 00-6.041 11.398 15.72 14.474 0 006.052 11.392V29.87a15.72 14.474 0 00-.011-.008zM140.306 29.862a15.72 14.474 0 016.041 11.398 15.72 14.474 0 01-6.051 11.392V29.87a15.72 14.474 0 01.01-.008z" fill="#5f5fd3" fill-rule="evenodd" stroke="#000" stroke-width=".489"/><path d="M140.296 23.52V59" fill="none" stroke="#000" stroke-width=".422"/><text style="line-height:1.25" x="123.197" y="75.4" font-weight="400" font-size="10.583" font-family="sans-serif" letter-spacing="0" word-spacing="0" stroke-width=".265"><tspan x="123.197" y="75.4" style="-inkscape-font-specification:SimHei" font-size="8.467" font-family="SimHei">混乱善良</tspan></text><text style="line-height:1.25" x="97.962" y="84.495" font-weight="400" font-size="10.583" font-family="sans-serif" letter-spacing="0" word-spacing="0" stroke-width=".265"><tspan x="97.962" y="84.495" style="-inkscape-font-specification:SimHei" font-size="7.056" font-family="SimHei">“做自己认为是善良的事”</tspan></text></g><g transform="matrix(.87233 0 0 .87233 92.005 129.17)"><path fill="#fff" fill-rule="evenodd" stroke="#000" stroke-width=".698" d="M-99.15 107.584h71.707v48.86H-99.15z"/><g transform="translate(-154.302 74.888)" stroke="#000"><ellipse cy="57.126" cx="81.337" rx="15.72" ry="14.474" fill="#fff" fill-rule="evenodd" stroke-width=".489"/><ellipse cy="57.125" cx="100.674" rx="15.72" ry="14.474" fill="#fff" fill-rule="evenodd" stroke-width=".489"/><path d="M90.995 45.727a15.72 14.474 0 00-6.041 11.399 15.72 14.474 0 006.051 11.39V45.736a15.72 14.474 0 00-.01-.008z" fill="#d45500" fill-rule="evenodd" stroke-width=".489"/><path d="M91.016 45.727a15.72 14.474 0 016.04 11.399 15.72 14.474 0 01-6.05 11.39V45.736a15.72 14.474 0 01.01-.008z" fill="#fff" fill-rule="evenodd" stroke-width=".489"/><path d="M91.005 39.386v35.48" fill="none" stroke-width=".422"/></g><text y="75.4" x="123.197" style="line-height:1.25" font-weight="400" font-size="10.583" font-family="sans-serif" letter-spacing="0" word-spacing="0" stroke-width=".265" transform="translate(-203.592 90.753)"><tspan style="-inkscape-font-specification:SimHei" y="75.4" x="123.197" font-size="8.467" font-family="SimHei">守序邪恶</tspan></text><text y="84.495" x="115.601" style="line-height:1.25" font-weight="400" font-size="10.583" font-family="sans-serif" letter-spacing="0" word-spacing="0" stroke-width=".265" transform="translate(-203.592 90.753)"><tspan style="-inkscape-font-specification:SimHei" y="84.495" x="115.601" font-size="7.056" font-family="SimHei">“体制下为恶”</tspan></text><path fill="#fff" fill-rule="evenodd" stroke="#000" stroke-width=".69813324" d="M-20.956 107.583h71.707v48.86h-71.707z"/><g stroke="#000"><g fill-rule="evenodd" stroke-width=".489" transform="matrix(1 0 0 1 -76.108 74.888)"><ellipse ry="14.474" rx="15.72" cx="81.337" cy="57.126" fill="#2a2aff"/><ellipse ry="14.474" rx="15.72" cx="100.674" cy="57.125" fill="#fff"/><path d="M90.995 45.727a15.72 14.474 0 00-6.041 11.399 15.72 14.474 0 006.051 11.39V45.736a15.72 14.474 0 00-.01-.008z" fill="#2a2aff"/><path d="M91.016 45.727a15.72 14.474 0 016.04 11.399 15.72 14.474 0 01-6.05 11.39V45.736a15.72 14.474 0 01.01-.008z" fill="#fff"/></g><path d="M14.897 114.274v35.48" fill="none" stroke-width=".422"/></g><text y="138.195" x="90.44" style="line-height:1.25" font-weight="400" font-size="9.232" font-family="sans-serif" letter-spacing="0" word-spacing="0" stroke-width=".231" transform="matrix(1.14636 0 0 1.14636 -105.878 7.732)"><tspan style="-inkscape-font-specification:SimHei" y="138.195" x="90.44" font-size="7.386" font-family="SimHei">中立邪恶</tspan></text><text y="146.129" x="77.659" style="line-height:1.25" font-weight="400" font-size="9.232" font-family="sans-serif" letter-spacing="0" word-spacing="0" stroke-width=".231" transform="matrix(1.14636 0 0 1.14636 -105.878 7.732)"><tspan style="-inkscape-font-specification:SimHei" y="146.129" x="77.659" font-size="6.155" font-family="SimHei">“正统的反派角色”</tspan></text><path fill="#fff" fill-rule="evenodd" stroke="#000" stroke-width=".698" d="M57.238 107.584h71.707v48.86H57.238z"/><ellipse cy="132.014" cx="83.423" rx="15.72" ry="14.474" fill="red" fill-rule="evenodd" stroke="#000" stroke-width=".489"/><ellipse cy="132.014" cx="102.76" rx="15.72" ry="14.474" fill="#fff" fill-rule="evenodd" stroke="#000" stroke-width=".489"/><path d="M93.08 120.615a15.72 14.474 0 00-6.04 11.399 15.72 14.474 0 006.051 11.39v-22.781a15.72 14.474 0 00-.01-.008zM93.102 120.615a15.72 14.474 0 016.041 11.399 15.72 14.474 0 01-6.052 11.39v-22.781a15.72 14.474 0 01.011-.008z" fill="red" fill-rule="evenodd" stroke="#000" stroke-width=".489"/><path d="M93.091 114.274v35.48" fill="red" stroke="#000" stroke-width=".422"/><text y="166.153" x="75.993" style="line-height:1.25" font-weight="400" font-size="10.583" font-family="sans-serif" letter-spacing="0" word-spacing="0" stroke-width=".265"><tspan style="-inkscape-font-specification:SimHei" y="166.153" x="75.993" font-size="8.467" font-family="SimHei">混乱邪恶</tspan></text><text y="175.248" x="68.397" style="line-height:1.25" font-weight="400" font-size="10.583" font-family="sans-serif" letter-spacing="0" word-spacing="0" stroke-width=".265"><tspan style="-inkscape-font-specification:SimHei" y="175.248" x="68.397" font-size="7.056" font-family="SimHei">“自己爽就好”</tspan></text></g><text style="line-height:1.25" x="18.782" y="32.611" font-weight="400" font-size="10.583" font-family="sans-serif" letter-spacing="0" word-spacing="0" stroke-width=".265" transform="translate(-.356)"><tspan x="18.782" y="32.611" style="-inkscape-font-specification:SimHei" font-size="16.933" font-family="SimHei">五分钟看懂</tspan><tspan x="18.782" y="53.778" style="-inkscape-font-specification:SimHei" font-size="16.933" font-family="SimHei">阵营九宫格</tspan></text></g></svg>