<svg xmlns="http://www.w3.org/2000/svg" xmlns:xlink="http://www.w3.org/1999/xlink" width="412.866" height="412.866"><path d="M206.433 194.882v23.102M217.984 206.433h-23.102" fill="none" stroke="#000" stroke-width=".5"/><path d="M412.147 206.433c0 113.613-92.101 205.714-205.714 205.714S.719 320.046.719 206.433 92.82.719 206.433.719 412.147 92.82 412.147 206.433z" fill="none" stroke="#000"/><g transform="translate(520.083 -4.087)"><use height="1052.362" width="744.094" transform="rotate(-100 -313.65 210.52)" xlink:href="#a"/><use height="1052.362" width="744.094" transform="rotate(-90 -313.65 210.52)" xlink:href="#a"/><use height="1052.362" width="744.094" transform="rotate(-80 -313.65 210.52)" xlink:href="#a"/><path id="a" d="M-313.65 196.91V62.579m0-27.875V4.805" fill="none" stroke="#000" stroke-width="1" stroke-miterlimit="10" stroke-opacity="1" stroke-dasharray="none" stroke-dashoffset="0"/><use height="1052.362" width="744.094" transform="rotate(10 -313.65 210.52)" xlink:href="#a"/><use height="1052.362" width="744.094" transform="rotate(20 -313.65 210.52)" xlink:href="#a"/><use height="1052.362" width="744.094" transform="rotate(30 -313.65 210.52)" xlink:href="#a"/><use height="1052.362" width="744.094" transform="rotate(40 -313.65 210.52)" xlink:href="#a"/><use height="1052.362" width="744.094" transform="rotate(50 -313.65 210.52)" xlink:href="#a"/><use height="1052.362" width="744.094" transform="rotate(60 -313.65 210.52)" xlink:href="#a"/><use height="1052.362" width="744.094" transform="rotate(70 -313.65 210.52)" xlink:href="#a"/><use height="1052.362" width="744.094" transform="rotate(80 -313.65 210.52)" xlink:href="#a"/><use height="1052.362" width="744.094" transform="rotate(90 -313.65 210.52)" xlink:href="#a"/><use height="1052.362" width="744.094" transform="rotate(100 -313.65 210.52)" xlink:href="#a"/><use height="1052.362" width="744.094" transform="rotate(110 -313.65 210.52)" xlink:href="#a"/><use height="1052.362" width="744.094" transform="rotate(120 -313.65 210.52)" xlink:href="#a"/><use height="1052.362" width="744.094" transform="rotate(130 -313.65 210.52)" xlink:href="#a"/><use height="1052.362" width="744.094" transform="rotate(140 -313.65 210.52)" xlink:href="#a"/><use height="1052.362" width="744.094" transform="rotate(150 -313.65 210.52)" xlink:href="#a"/><use height="1052.362" width="744.094" transform="rotate(160 -313.65 210.52)" xlink:href="#a"/><use height="1052.362" width="744.094" transform="rotate(170 -313.65 210.52)" xlink:href="#a"/><use height="1052.362" width="744.094" transform="rotate(180 -313.65 210.52)" xlink:href="#a"/><use height="1052.362" width="744.094" transform="rotate(-170 -313.65 210.52)" xlink:href="#a"/><use height="1052.362" width="744.094" transform="rotate(-160 -313.65 210.52)" xlink:href="#a"/><use height="1052.362" width="744.094" transform="rotate(-150 -313.65 210.52)" xlink:href="#a"/><use height="1052.362" width="744.094" transform="rotate(-140 -313.65 210.52)" xlink:href="#a"/><use height="1052.362" width="744.094" transform="rotate(-130 -313.65 210.52)" xlink:href="#a"/><use height="1052.362" width="744.094" transform="rotate(-120 -313.65 210.52)" xlink:href="#a"/><use height="1052.362" width="744.094" transform="rotate(-110 -313.65 210.52)" xlink:href="#a"/><use height="1052.362" width="744.094" transform="rotate(-70 -313.65 210.52)" xlink:href="#a"/><use height="1052.362" width="744.094" transform="rotate(-60 -313.65 210.52)" xlink:href="#a"/><use height="1052.362" width="744.094" transform="rotate(-50 -313.65 210.52)" xlink:href="#a"/><use height="1052.362" width="744.094" transform="rotate(-40 -313.65 210.52)" xlink:href="#a"/><use height="1052.362" width="744.094" transform="rotate(-30 -313.65 210.52)" xlink:href="#a"/><use height="1052.362" width="744.094" transform="rotate(-20 -313.65 210.52)" xlink:href="#a"/><use height="1052.362" width="744.094" transform="rotate(-10 -313.65 210.52)" xlink:href="#a"/></g><g transform="translate(-387.842 371.511)"><path d="M594.275-268.404v-15.357m0-72.143v-15.357" id="b" fill="none" stroke="#000" stroke-width=".5" stroke-miterlimit="10" stroke-opacity="1" stroke-dasharray="none" stroke-dashoffset="0"/><use height="1052.362" width="744.094" transform="rotate(5 594.275 -165.078)" xlink:href="#b"/><use height="1052.362" width="744.094" transform="rotate(10 594.275 -165.078)" xlink:href="#b"/><use height="1052.362" width="744.094" transform="rotate(15 594.275 -165.078)" xlink:href="#b"/><use height="1052.362" width="744.094" transform="rotate(20 594.275 -165.078)" xlink:href="#b"/><use height="1052.362" width="744.094" transform="rotate(25 594.275 -165.078)" xlink:href="#b"/><use height="1052.362" width="744.094" transform="rotate(30 594.275 -165.078)" xlink:href="#b"/><use height="1052.362" width="744.094" transform="rotate(35 594.275 -165.078)" xlink:href="#b"/><use height="1052.362" width="744.094" transform="rotate(40 594.275 -165.078)" xlink:href="#b"/><use height="1052.362" width="744.094" transform="rotate(45 594.275 -165.078)" xlink:href="#b"/><use height="1052.362" width="744.094" transform="rotate(50 594.275 -165.078)" xlink:href="#b"/><use height="1052.362" width="744.094" transform="rotate(55 594.275 -165.078)" xlink:href="#b"/><use height="1052.362" width="744.094" transform="rotate(60 594.275 -165.078)" xlink:href="#b"/><use height="1052.362" width="744.094" transform="rotate(65 594.275 -165.078)" xlink:href="#b"/><use height="1052.362" width="744.094" transform="rotate(70 594.275 -165.078)" xlink:href="#b"/><use height="1052.362" width="744.094" transform="rotate(75 594.275 -165.078)" xlink:href="#b"/><use height="1052.362" width="744.094" transform="rotate(80 594.275 -165.078)" xlink:href="#b"/><use height="1052.362" width="744.094" transform="rotate(85 594.275 -165.078)" xlink:href="#b"/><use height="1052.362" width="744.094" transform="rotate(90 594.275 -165.078)" xlink:href="#b"/><use height="1052.362" width="744.094" transform="rotate(95 594.275 -165.078)" xlink:href="#b"/><use height="1052.362" width="744.094" transform="rotate(100 594.275 -165.078)" xlink:href="#b"/><use height="1052.362" width="744.094" transform="rotate(105 594.275 -165.078)" xlink:href="#b"/><use height="1052.362" width="744.094" transform="rotate(110 594.275 -165.078)" xlink:href="#b"/><use height="1052.362" width="744.094" transform="rotate(115 594.275 -165.078)" xlink:href="#b"/><use height="1052.362" width="744.094" transform="rotate(120 594.275 -165.078)" xlink:href="#b"/><use height="1052.362" width="744.094" transform="rotate(125 594.275 -165.078)" xlink:href="#b"/><use height="1052.362" width="744.094" transform="rotate(130 594.275 -165.078)" xlink:href="#b"/><use height="1052.362" width="744.094" transform="rotate(135 594.275 -165.078)" xlink:href="#b"/><use height="1052.362" width="744.094" transform="rotate(140 594.275 -165.078)" xlink:href="#b"/><use height="1052.362" width="744.094" transform="rotate(145 594.275 -165.078)" xlink:href="#b"/><use height="1052.362" width="744.094" transform="rotate(150 594.275 -165.078)" xlink:href="#b"/><use height="1052.362" width="744.094" transform="rotate(155 594.275 -165.078)" xlink:href="#b"/><use height="1052.362" width="744.094" transform="rotate(160 594.275 -165.078)" xlink:href="#b"/><use height="1052.362" width="744.094" transform="rotate(165 594.275 -165.078)" xlink:href="#b"/><use height="1052.362" width="744.094" transform="rotate(170 594.275 -165.078)" xlink:href="#b"/><use height="1052.362" width="744.094" transform="rotate(175 594.275 -165.078)" xlink:href="#b"/><use height="1052.362" width="744.094" transform="rotate(180 594.275 -165.078)" xlink:href="#b"/><use height="1052.362" width="744.094" transform="rotate(-175 594.275 -165.078)" xlink:href="#b"/><use height="1052.362" width="744.094" transform="rotate(-170 594.275 -165.078)" xlink:href="#b"/><use height="1052.362" width="744.094" transform="rotate(-165 594.275 -165.078)" xlink:href="#b"/><use height="1052.362" width="744.094" transform="rotate(-160 594.275 -165.078)" xlink:href="#b"/><use height="1052.362" width="744.094" transform="rotate(-155 594.275 -165.078)" xlink:href="#b"/><use height="1052.362" width="744.094" transform="rotate(-150 594.275 -165.078)" xlink:href="#b"/><use height="1052.362" width="744.094" transform="rotate(-145 594.275 -165.078)" xlink:href="#b"/><use height="1052.362" width="744.094" transform="rotate(-140 594.275 -165.078)" xlink:href="#b"/><use height="1052.362" width="744.094" transform="rotate(-135 594.275 -165.078)" xlink:href="#b"/><use height="1052.362" width="744.094" transform="rotate(-130 594.275 -165.078)" xlink:href="#b"/><use height="1052.362" width="744.094" transform="rotate(-125 594.275 -165.078)" xlink:href="#b"/><use height="1052.362" width="744.094" transform="rotate(-120 594.275 -165.078)" xlink:href="#b"/><use height="1052.362" width="744.094" transform="rotate(-115 594.275 -165.078)" xlink:href="#b"/><use height="1052.362" width="744.094" transform="rotate(-110 594.275 -165.078)" xlink:href="#b"/><use height="1052.362" width="744.094" transform="rotate(-105 594.275 -165.078)" xlink:href="#b"/><use height="1052.362" width="744.094" transform="rotate(-100 594.275 -165.078)" xlink:href="#b"/><use height="1052.362" width="744.094" transform="rotate(-95 594.275 -165.078)" xlink:href="#b"/><use height="1052.362" width="744.094" transform="rotate(-90 594.275 -165.078)" xlink:href="#b"/><use height="1052.362" width="744.094" transform="rotate(-85 594.275 -165.078)" xlink:href="#b"/><use height="1052.362" width="744.094" transform="rotate(-80 594.275 -165.078)" xlink:href="#b"/><use height="1052.362" width="744.094" transform="rotate(-75 594.275 -165.078)" xlink:href="#b"/><use height="1052.362" width="744.094" transform="rotate(-70 594.275 -165.078)" xlink:href="#b"/><use height="1052.362" width="744.094" transform="rotate(-65 594.275 -165.078)" xlink:href="#b"/><use height="1052.362" width="744.094" transform="rotate(-60 594.275 -165.078)" xlink:href="#b"/><use height="1052.362" width="744.094" transform="rotate(-55 594.275 -165.078)" xlink:href="#b"/><use height="1052.362" width="744.094" transform="rotate(-50 594.275 -165.078)" xlink:href="#b"/><use height="1052.362" width="744.094" transform="rotate(-45 594.275 -165.078)" xlink:href="#b"/><use height="1052.362" width="744.094" transform="rotate(-40 594.275 -165.078)" xlink:href="#b"/><use height="1052.362" width="744.094" transform="rotate(-35 594.275 -165.078)" xlink:href="#b"/><use height="1052.362" width="744.094" transform="rotate(-30 594.275 -165.078)" xlink:href="#b"/><use height="1052.362" width="744.094" transform="rotate(-25 594.275 -165.078)" xlink:href="#b"/><use height="1052.362" width="744.094" transform="rotate(-20 594.275 -165.078)" xlink:href="#b"/><use height="1052.362" width="744.094" transform="rotate(-15 594.275 -165.078)" xlink:href="#b"/><use height="1052.362" width="744.094" transform="rotate(-10 594.275 -165.078)" xlink:href="#b"/><use height="1052.362" width="744.094" transform="rotate(-5 594.275 -165.078)" xlink:href="#b"/></g><g transform="translate(-387.842 371.511)"><path d="M594.275-273.31v-6.25m0-84.286v-7.322" id="c" fill="none" stroke="#000" stroke-width=".3" stroke-miterlimit="10" stroke-opacity="1" stroke-dasharray="none" stroke-dashoffset="0"/><use height="1052.362" width="744.094" transform="rotate(1 594.275 -165.078)" xlink:href="#c"/><use height="1052.362" width="744.094" transform="rotate(2 594.275 -165.078)" xlink:href="#c"/><use height="1052.362" width="744.094" transform="rotate(3 594.275 -165.078)" xlink:href="#c"/><use height="1052.362" width="744.094" transform="rotate(4 594.275 -165.078)" xlink:href="#c"/><use height="1052.362" width="744.094" transform="rotate(5 594.275 -165.078)" xlink:href="#c"/><use height="1052.362" width="744.094" transform="rotate(6 594.275 -165.078)" xlink:href="#c"/><use height="1052.362" width="744.094" transform="rotate(7 594.275 -165.078)" xlink:href="#c"/><use height="1052.362" width="744.094" transform="rotate(8 594.275 -165.078)" xlink:href="#c"/><use height="1052.362" width="744.094" transform="rotate(9 594.275 -165.078)" xlink:href="#c"/><use height="1052.362" width="744.094" transform="rotate(10 594.275 -165.078)" xlink:href="#c"/><use height="1052.362" width="744.094" transform="rotate(11 594.275 -165.078)" xlink:href="#c"/><use height="1052.362" width="744.094" transform="rotate(12 594.275 -165.078)" xlink:href="#c"/><use height="1052.362" width="744.094" transform="rotate(13 594.275 -165.078)" xlink:href="#c"/><use height="1052.362" width="744.094" transform="rotate(14 594.275 -165.078)" xlink:href="#c"/><use height="1052.362" width="744.094" transform="rotate(15 594.275 -165.078)" xlink:href="#c"/><use height="1052.362" width="744.094" transform="rotate(16 594.275 -165.078)" xlink:href="#c"/><use height="1052.362" width="744.094" transform="rotate(17 594.275 -165.078)" xlink:href="#c"/><use height="1052.362" width="744.094" transform="rotate(18 594.275 -165.078)" xlink:href="#c"/><use height="1052.362" width="744.094" transform="rotate(19 594.275 -165.078)" xlink:href="#c"/><use height="1052.362" width="744.094" transform="rotate(20 594.275 -165.078)" xlink:href="#c"/><use height="1052.362" width="744.094" transform="rotate(21 594.275 -165.078)" xlink:href="#c"/><use height="1052.362" width="744.094" transform="rotate(22 594.275 -165.078)" xlink:href="#c"/><use height="1052.362" width="744.094" transform="rotate(23 594.275 -165.078)" xlink:href="#c"/><use height="1052.362" width="744.094" transform="rotate(24 594.275 -165.078)" xlink:href="#c"/><use height="1052.362" width="744.094" transform="rotate(25 594.275 -165.078)" xlink:href="#c"/><use height="1052.362" width="744.094" transform="rotate(26 594.275 -165.078)" xlink:href="#c"/><use height="1052.362" width="744.094" transform="rotate(27 594.275 -165.078)" xlink:href="#c"/><use height="1052.362" width="744.094" transform="rotate(28 594.275 -165.078)" xlink:href="#c"/><use height="1052.362" width="744.094" transform="rotate(29 594.275 -165.078)" xlink:href="#c"/><use height="1052.362" width="744.094" transform="rotate(30 594.275 -165.078)" xlink:href="#c"/><use height="1052.362" width="744.094" transform="rotate(31 594.275 -165.078)" xlink:href="#c"/><use height="1052.362" width="744.094" transform="rotate(32 594.275 -165.078)" xlink:href="#c"/><use height="1052.362" width="744.094" transform="rotate(33 594.275 -165.078)" xlink:href="#c"/><use height="1052.362" width="744.094" transform="rotate(34 594.275 -165.078)" xlink:href="#c"/><use height="1052.362" width="744.094" transform="rotate(35 594.275 -165.078)" xlink:href="#c"/><use height="1052.362" width="744.094" transform="rotate(36 594.275 -165.078)" xlink:href="#c"/><use height="1052.362" width="744.094" transform="rotate(37 594.275 -165.078)" xlink:href="#c"/><use height="1052.362" width="744.094" transform="rotate(38 594.275 -165.078)" xlink:href="#c"/><use height="1052.362" width="744.094" transform="rotate(39 594.275 -165.078)" xlink:href="#c"/><use height="1052.362" width="744.094" transform="rotate(40 594.275 -165.078)" xlink:href="#c"/><use height="1052.362" width="744.094" transform="rotate(41 594.275 -165.078)" xlink:href="#c"/><use height="1052.362" width="744.094" transform="rotate(42 594.275 -165.078)" xlink:href="#c"/><use height="1052.362" width="744.094" transform="rotate(43 594.275 -165.078)" xlink:href="#c"/><use height="1052.362" width="744.094" transform="rotate(44 594.275 -165.078)" xlink:href="#c"/><use height="1052.362" width="744.094" transform="rotate(45 594.275 -165.078)" xlink:href="#c"/><use height="1052.362" width="744.094" transform="rotate(46 594.275 -165.078)" xlink:href="#c"/><use height="1052.362" width="744.094" transform="rotate(47 594.275 -165.078)" xlink:href="#c"/><use height="1052.362" width="744.094" transform="rotate(48 594.275 -165.078)" xlink:href="#c"/><use height="1052.362" width="744.094" transform="rotate(49 594.275 -165.078)" xlink:href="#c"/><use height="1052.362" width="744.094" transform="rotate(50 594.275 -165.078)" xlink:href="#c"/><use height="1052.362" width="744.094" transform="rotate(51 594.275 -165.078)" xlink:href="#c"/><use height="1052.362" width="744.094" transform="rotate(52 594.275 -165.078)" xlink:href="#c"/><use height="1052.362" width="744.094" transform="rotate(53 594.275 -165.078)" xlink:href="#c"/><use height="1052.362" width="744.094" transform="rotate(54 594.275 -165.078)" xlink:href="#c"/><use height="1052.362" width="744.094" transform="rotate(55 594.275 -165.078)" xlink:href="#c"/><use height="1052.362" width="744.094" transform="rotate(56 594.275 -165.078)" xlink:href="#c"/><use height="1052.362" width="744.094" transform="rotate(57 594.275 -165.078)" xlink:href="#c"/><use height="1052.362" width="744.094" transform="rotate(58 594.275 -165.078)" xlink:href="#c"/><use height="1052.362" width="744.094" transform="rotate(59 594.275 -165.078)" xlink:href="#c"/><use height="1052.362" width="744.094" transform="rotate(60 594.275 -165.078)" xlink:href="#c"/><use height="1052.362" width="744.094" transform="rotate(61 594.275 -165.078)" xlink:href="#c"/><use height="1052.362" width="744.094" transform="rotate(62 594.275 -165.078)" xlink:href="#c"/><use height="1052.362" width="744.094" transform="rotate(63 594.275 -165.078)" xlink:href="#c"/><use height="1052.362" width="744.094" transform="rotate(64 594.275 -165.078)" xlink:href="#c"/><use height="1052.362" width="744.094" transform="rotate(65 594.275 -165.078)" xlink:href="#c"/><use height="1052.362" width="744.094" transform="rotate(66 594.275 -165.078)" xlink:href="#c"/><use height="1052.362" width="744.094" transform="rotate(67 594.275 -165.078)" xlink:href="#c"/><use height="1052.362" width="744.094" transform="rotate(68 594.275 -165.078)" xlink:href="#c"/><use height="1052.362" width="744.094" transform="rotate(69 594.275 -165.078)" xlink:href="#c"/><use height="1052.362" width="744.094" transform="rotate(70 594.275 -165.078)" xlink:href="#c"/><use height="1052.362" width="744.094" transform="rotate(71 594.275 -165.078)" xlink:href="#c"/><use height="1052.362" width="744.094" transform="rotate(72 594.275 -165.078)" xlink:href="#c"/><use height="1052.362" width="744.094" transform="rotate(73 594.275 -165.078)" xlink:href="#c"/><use height="1052.362" width="744.094" transform="rotate(74 594.275 -165.078)" xlink:href="#c"/><use height="1052.362" width="744.094" transform="rotate(75 594.275 -165.078)" xlink:href="#c"/><use height="1052.362" width="744.094" transform="rotate(76 594.275 -165.078)" xlink:href="#c"/><use height="1052.362" width="744.094" transform="rotate(77 594.275 -165.078)" xlink:href="#c"/><use height="1052.362" width="744.094" transform="rotate(78 594.275 -165.078)" xlink:href="#c"/><use height="1052.362" width="744.094" transform="rotate(79 594.275 -165.078)" xlink:href="#c"/><use height="1052.362" width="744.094" transform="rotate(80 594.275 -165.078)" xlink:href="#c"/><use height="1052.362" width="744.094" transform="rotate(81 594.275 -165.078)" xlink:href="#c"/><use height="1052.362" width="744.094" transform="rotate(82 594.275 -165.078)" xlink:href="#c"/><use height="1052.362" width="744.094" transform="rotate(83 594.275 -165.078)" xlink:href="#c"/><use height="1052.362" width="744.094" transform="rotate(84 594.275 -165.078)" xlink:href="#c"/><use height="1052.362" width="744.094" transform="rotate(85 594.275 -165.078)" xlink:href="#c"/><use height="1052.362" width="744.094" transform="rotate(86 594.275 -165.078)" xlink:href="#c"/><use height="1052.362" width="744.094" transform="rotate(87 594.275 -165.078)" xlink:href="#c"/><use height="1052.362" width="744.094" transform="rotate(88 594.275 -165.078)" xlink:href="#c"/><use height="1052.362" width="744.094" transform="rotate(89 594.275 -165.078)" xlink:href="#c"/><use height="1052.362" width="744.094" transform="rotate(90 594.275 -165.078)" xlink:href="#c"/><use height="1052.362" width="744.094" transform="rotate(91 594.275 -165.078)" xlink:href="#c"/><use height="1052.362" width="744.094" transform="rotate(92 594.275 -165.078)" xlink:href="#c"/><use height="1052.362" width="744.094" transform="rotate(93 594.275 -165.078)" xlink:href="#c"/><use height="1052.362" width="744.094" transform="rotate(94 594.275 -165.078)" xlink:href="#c"/><use height="1052.362" width="744.094" transform="rotate(95 594.275 -165.078)" xlink:href="#c"/><use height="1052.362" width="744.094" transform="rotate(96 594.275 -165.078)" xlink:href="#c"/><use height="1052.362" width="744.094" transform="rotate(97 594.275 -165.078)" xlink:href="#c"/><use height="1052.362" width="744.094" transform="rotate(98 594.275 -165.078)" xlink:href="#c"/><use height="1052.362" width="744.094" transform="rotate(99 594.275 -165.078)" xlink:href="#c"/><use height="1052.362" width="744.094" transform="rotate(100 594.275 -165.078)" xlink:href="#c"/><use height="1052.362" width="744.094" transform="rotate(101 594.275 -165.078)" xlink:href="#c"/><use height="1052.362" width="744.094" transform="rotate(102 594.275 -165.078)" xlink:href="#c"/><use height="1052.362" width="744.094" transform="rotate(103 594.275 -165.078)" xlink:href="#c"/><use height="1052.362" width="744.094" transform="rotate(104 594.275 -165.078)" xlink:href="#c"/><use height="1052.362" width="744.094" transform="rotate(105 594.275 -165.078)" xlink:href="#c"/><use height="1052.362" width="744.094" transform="rotate(106 594.275 -165.078)" xlink:href="#c"/><use height="1052.362" width="744.094" transform="rotate(107 594.275 -165.078)" xlink:href="#c"/><use height="1052.362" width="744.094" transform="rotate(108 594.275 -165.078)" xlink:href="#c"/><use height="1052.362" width="744.094" transform="rotate(109 594.275 -165.078)" xlink:href="#c"/><use height="1052.362" width="744.094" transform="rotate(110 594.275 -165.078)" xlink:href="#c"/><use height="1052.362" width="744.094" transform="rotate(111 594.275 -165.078)" xlink:href="#c"/><use height="1052.362" width="744.094" transform="rotate(112 594.275 -165.078)" xlink:href="#c"/><use height="1052.362" width="744.094" transform="rotate(113 594.275 -165.078)" xlink:href="#c"/><use height="1052.362" width="744.094" transform="rotate(114 594.275 -165.078)" xlink:href="#c"/><use height="1052.362" width="744.094" transform="rotate(115 594.275 -165.078)" xlink:href="#c"/><use height="1052.362" width="744.094" transform="rotate(116 594.275 -165.078)" xlink:href="#c"/><use height="1052.362" width="744.094" transform="rotate(117 594.275 -165.078)" xlink:href="#c"/><use height="1052.362" width="744.094" transform="rotate(118 594.275 -165.078)" xlink:href="#c"/><use height="1052.362" width="744.094" transform="rotate(119 594.275 -165.078)" xlink:href="#c"/><use height="1052.362" width="744.094" transform="rotate(120 594.275 -165.078)" xlink:href="#c"/><use height="1052.362" width="744.094" transform="rotate(121 594.275 -165.078)" xlink:href="#c"/><use height="1052.362" width="744.094" transform="rotate(122 594.275 -165.078)" xlink:href="#c"/><use height="1052.362" width="744.094" transform="rotate(123 594.275 -165.078)" xlink:href="#c"/><use height="1052.362" width="744.094" transform="rotate(124 594.275 -165.078)" xlink:href="#c"/><use height="1052.362" width="744.094" transform="rotate(125 594.275 -165.078)" xlink:href="#c"/><use height="1052.362" width="744.094" transform="rotate(126 594.275 -165.078)" xlink:href="#c"/><use height="1052.362" width="744.094" transform="rotate(127 594.275 -165.078)" xlink:href="#c"/><use height="1052.362" width="744.094" transform="rotate(128 594.275 -165.078)" xlink:href="#c"/><use height="1052.362" width="744.094" transform="rotate(129 594.275 -165.078)" xlink:href="#c"/><use height="1052.362" width="744.094" transform="rotate(130 594.275 -165.078)" xlink:href="#c"/><use height="1052.362" width="744.094" transform="rotate(131 594.275 -165.078)" xlink:href="#c"/><use height="1052.362" width="744.094" transform="rotate(132 594.275 -165.078)" xlink:href="#c"/><use height="1052.362" width="744.094" transform="rotate(133 594.275 -165.078)" xlink:href="#c"/><use height="1052.362" width="744.094" transform="rotate(134 594.275 -165.078)" xlink:href="#c"/><use height="1052.362" width="744.094" transform="rotate(135 594.275 -165.078)" xlink:href="#c"/><use height="1052.362" width="744.094" transform="rotate(136 594.275 -165.078)" xlink:href="#c"/><use height="1052.362" width="744.094" transform="rotate(137 594.275 -165.078)" xlink:href="#c"/><use height="1052.362" width="744.094" transform="rotate(138 594.275 -165.078)" xlink:href="#c"/><use height="1052.362" width="744.094" transform="rotate(139 594.275 -165.078)" xlink:href="#c"/><use height="1052.362" width="744.094" transform="rotate(140 594.275 -165.078)" xlink:href="#c"/><use height="1052.362" width="744.094" transform="rotate(141 594.275 -165.078)" xlink:href="#c"/><use height="1052.362" width="744.094" transform="rotate(142 594.275 -165.078)" xlink:href="#c"/><use height="1052.362" width="744.094" transform="rotate(143 594.275 -165.078)" xlink:href="#c"/><use height="1052.362" width="744.094" transform="rotate(144 594.275 -165.078)" xlink:href="#c"/><use height="1052.362" width="744.094" transform="rotate(145 594.275 -165.078)" xlink:href="#c"/><use height="1052.362" width="744.094" transform="rotate(146 594.275 -165.078)" xlink:href="#c"/><use height="1052.362" width="744.094" transform="rotate(147 594.275 -165.078)" xlink:href="#c"/><use height="1052.362" width="744.094" transform="rotate(148 594.275 -165.078)" xlink:href="#c"/><use height="1052.362" width="744.094" transform="rotate(149 594.275 -165.078)" xlink:href="#c"/><use height="1052.362" width="744.094" transform="rotate(150 594.275 -165.078)" xlink:href="#c"/><use height="1052.362" width="744.094" transform="rotate(151 594.275 -165.078)" xlink:href="#c"/><use height="1052.362" width="744.094" transform="rotate(152 594.275 -165.078)" xlink:href="#c"/><use height="1052.362" width="744.094" transform="rotate(153 594.275 -165.078)" xlink:href="#c"/><use height="1052.362" width="744.094" transform="rotate(154 594.275 -165.078)" xlink:href="#c"/><use height="1052.362" width="744.094" transform="rotate(155 594.275 -165.078)" xlink:href="#c"/><use height="1052.362" width="744.094" transform="rotate(156 594.275 -165.078)" xlink:href="#c"/><use height="1052.362" width="744.094" transform="rotate(157 594.275 -165.078)" xlink:href="#c"/><use height="1052.362" width="744.094" transform="rotate(158 594.275 -165.078)" xlink:href="#c"/><use height="1052.362" width="744.094" transform="rotate(159 594.275 -165.078)" xlink:href="#c"/><use height="1052.362" width="744.094" transform="rotate(160 594.275 -165.078)" xlink:href="#c"/><use height="1052.362" width="744.094" transform="rotate(161 594.275 -165.078)" xlink:href="#c"/><use height="1052.362" width="744.094" transform="rotate(162 594.275 -165.078)" xlink:href="#c"/><use height="1052.362" width="744.094" transform="rotate(163 594.275 -165.078)" xlink:href="#c"/><use height="1052.362" width="744.094" transform="rotate(164 594.275 -165.078)" xlink:href="#c"/><use height="1052.362" width="744.094" transform="rotate(165 594.275 -165.078)" xlink:href="#c"/><use height="1052.362" width="744.094" transform="rotate(166 594.275 -165.078)" xlink:href="#c"/><use height="1052.362" width="744.094" transform="rotate(167 594.275 -165.078)" xlink:href="#c"/><use height="1052.362" width="744.094" transform="rotate(168 594.275 -165.078)" xlink:href="#c"/><use height="1052.362" width="744.094" transform="rotate(169 594.275 -165.078)" xlink:href="#c"/><use height="1052.362" width="744.094" transform="rotate(170 594.275 -165.078)" xlink:href="#c"/><use height="1052.362" width="744.094" transform="rotate(171 594.275 -165.078)" xlink:href="#c"/><use height="1052.362" width="744.094" transform="rotate(172 594.275 -165.078)" xlink:href="#c"/><use height="1052.362" width="744.094" transform="rotate(173 594.275 -165.078)" xlink:href="#c"/><use height="1052.362" width="744.094" transform="rotate(174 594.275 -165.078)" xlink:href="#c"/><use height="1052.362" width="744.094" transform="rotate(175 594.275 -165.078)" xlink:href="#c"/><use height="1052.362" width="744.094" transform="rotate(176 594.275 -165.078)" xlink:href="#c"/><use height="1052.362" width="744.094" transform="rotate(177 594.275 -165.078)" xlink:href="#c"/><use height="1052.362" width="744.094" transform="rotate(178 594.275 -165.078)" xlink:href="#c"/><use height="1052.362" width="744.094" transform="rotate(179 594.275 -165.078)" xlink:href="#c"/><use height="1052.362" width="744.094" transform="rotate(180 594.275 -165.078)" xlink:href="#c"/><use height="1052.362" width="744.094" transform="rotate(-179 594.275 -165.078)" xlink:href="#c"/><use height="1052.362" width="744.094" transform="rotate(-178 594.275 -165.078)" xlink:href="#c"/><use height="1052.362" width="744.094" transform="rotate(-177 594.275 -165.078)" xlink:href="#c"/><use height="1052.362" width="744.094" transform="rotate(-176 594.275 -165.078)" xlink:href="#c"/><use height="1052.362" width="744.094" transform="rotate(-175 594.275 -165.078)" xlink:href="#c"/><use height="1052.362" width="744.094" transform="rotate(-174 594.275 -165.078)" xlink:href="#c"/><use height="1052.362" width="744.094" transform="rotate(-173 594.275 -165.078)" xlink:href="#c"/><use height="1052.362" width="744.094" transform="rotate(-172 594.275 -165.078)" xlink:href="#c"/><use height="1052.362" width="744.094" transform="rotate(-171 594.275 -165.078)" xlink:href="#c"/><use height="1052.362" width="744.094" transform="rotate(-170 594.275 -165.078)" xlink:href="#c"/><use height="1052.362" width="744.094" transform="rotate(-169 594.275 -165.078)" xlink:href="#c"/><use height="1052.362" width="744.094" transform="rotate(-168 594.275 -165.078)" xlink:href="#c"/><use height="1052.362" width="744.094" transform="rotate(-167 594.275 -165.078)" xlink:href="#c"/><use height="1052.362" width="744.094" transform="rotate(-166 594.275 -165.078)" xlink:href="#c"/><use height="1052.362" width="744.094" transform="rotate(-165 594.275 -165.078)" xlink:href="#c"/><use height="1052.362" width="744.094" transform="rotate(-164 594.275 -165.078)" xlink:href="#c"/><use height="1052.362" width="744.094" transform="rotate(-163 594.275 -165.078)" xlink:href="#c"/><use height="1052.362" width="744.094" transform="rotate(-162 594.275 -165.078)" xlink:href="#c"/><use height="1052.362" width="744.094" transform="rotate(-161 594.275 -165.078)" xlink:href="#c"/><use height="1052.362" width="744.094" transform="rotate(-160 594.275 -165.078)" xlink:href="#c"/><use height="1052.362" width="744.094" transform="rotate(-159 594.275 -165.078)" xlink:href="#c"/><use height="1052.362" width="744.094" transform="rotate(-158 594.275 -165.078)" xlink:href="#c"/><use height="1052.362" width="744.094" transform="rotate(-157 594.275 -165.078)" xlink:href="#c"/><use height="1052.362" width="744.094" transform="rotate(-156 594.275 -165.078)" xlink:href="#c"/><use height="1052.362" width="744.094" transform="rotate(-155 594.275 -165.078)" xlink:href="#c"/><use height="1052.362" width="744.094" transform="rotate(-154 594.275 -165.078)" xlink:href="#c"/><use height="1052.362" width="744.094" transform="rotate(-153 594.275 -165.078)" xlink:href="#c"/><use height="1052.362" width="744.094" transform="rotate(-152 594.275 -165.078)" xlink:href="#c"/><use height="1052.362" width="744.094" transform="rotate(-151 594.275 -165.078)" xlink:href="#c"/><use height="1052.362" width="744.094" transform="rotate(-150 594.275 -165.078)" xlink:href="#c"/><use height="1052.362" width="744.094" transform="rotate(-149 594.275 -165.078)" xlink:href="#c"/><use height="1052.362" width="744.094" transform="rotate(-148 594.275 -165.078)" xlink:href="#c"/><use height="1052.362" width="744.094" transform="rotate(-147 594.275 -165.078)" xlink:href="#c"/><use height="1052.362" width="744.094" transform="rotate(-146 594.275 -165.078)" xlink:href="#c"/><use height="1052.362" width="744.094" transform="rotate(-145 594.275 -165.078)" xlink:href="#c"/><use height="1052.362" width="744.094" transform="rotate(-144 594.275 -165.078)" xlink:href="#c"/><use height="1052.362" width="744.094" transform="rotate(-143 594.275 -165.078)" xlink:href="#c"/><use height="1052.362" width="744.094" transform="rotate(-142 594.275 -165.078)" xlink:href="#c"/><use height="1052.362" width="744.094" transform="rotate(-141 594.275 -165.078)" xlink:href="#c"/><use height="1052.362" width="744.094" transform="rotate(-140 594.275 -165.078)" xlink:href="#c"/><use height="1052.362" width="744.094" transform="rotate(-139 594.275 -165.078)" xlink:href="#c"/><use height="1052.362" width="744.094" transform="rotate(-138 594.275 -165.078)" xlink:href="#c"/><use height="1052.362" width="744.094" transform="rotate(-137 594.275 -165.078)" xlink:href="#c"/><use height="1052.362" width="744.094" transform="rotate(-136 594.275 -165.078)" xlink:href="#c"/><use height="1052.362" width="744.094" transform="rotate(-135 594.275 -165.078)" xlink:href="#c"/><use height="1052.362" width="744.094" transform="rotate(-134 594.275 -165.078)" xlink:href="#c"/><use height="1052.362" width="744.094" transform="rotate(-133 594.275 -165.078)" xlink:href="#c"/><use height="1052.362" width="744.094" transform="rotate(-132 594.275 -165.078)" xlink:href="#c"/><use height="1052.362" width="744.094" transform="rotate(-131 594.275 -165.078)" xlink:href="#c"/><use height="1052.362" width="744.094" transform="rotate(-130 594.275 -165.078)" xlink:href="#c"/><use height="1052.362" width="744.094" transform="rotate(-129 594.275 -165.078)" xlink:href="#c"/><use height="1052.362" width="744.094" transform="rotate(-128 594.275 -165.078)" xlink:href="#c"/><use height="1052.362" width="744.094" transform="rotate(-127 594.275 -165.078)" xlink:href="#c"/><use height="1052.362" width="744.094" transform="rotate(-126 594.275 -165.078)" xlink:href="#c"/><use height="1052.362" width="744.094" transform="rotate(-125 594.275 -165.078)" xlink:href="#c"/><use height="1052.362" width="744.094" transform="rotate(-124 594.275 -165.078)" xlink:href="#c"/><use height="1052.362" width="744.094" transform="rotate(-123 594.275 -165.078)" xlink:href="#c"/><use height="1052.362" width="744.094" transform="rotate(-122 594.275 -165.078)" xlink:href="#c"/><use height="1052.362" width="744.094" transform="rotate(-121 594.275 -165.078)" xlink:href="#c"/><use height="1052.362" width="744.094" transform="rotate(-120 594.275 -165.078)" xlink:href="#c"/><use height="1052.362" width="744.094" transform="rotate(-119 594.275 -165.078)" xlink:href="#c"/><use height="1052.362" width="744.094" transform="rotate(-118 594.275 -165.078)" xlink:href="#c"/><use height="1052.362" width="744.094" transform="rotate(-117 594.275 -165.078)" xlink:href="#c"/><use height="1052.362" width="744.094" transform="rotate(-116 594.275 -165.078)" xlink:href="#c"/><use height="1052.362" width="744.094" transform="rotate(-115 594.275 -165.078)" xlink:href="#c"/><use height="1052.362" width="744.094" transform="rotate(-114 594.275 -165.078)" xlink:href="#c"/><use height="1052.362" width="744.094" transform="rotate(-113 594.275 -165.078)" xlink:href="#c"/><use height="1052.362" width="744.094" transform="rotate(-112 594.275 -165.078)" xlink:href="#c"/><use height="1052.362" width="744.094" transform="rotate(-111 594.275 -165.078)" xlink:href="#c"/><use height="1052.362" width="744.094" transform="rotate(-110 594.275 -165.078)" xlink:href="#c"/><use height="1052.362" width="744.094" transform="rotate(-109 594.275 -165.078)" xlink:href="#c"/><use height="1052.362" width="744.094" transform="rotate(-108 594.275 -165.078)" xlink:href="#c"/><use height="1052.362" width="744.094" transform="rotate(-107 594.275 -165.078)" xlink:href="#c"/><use height="1052.362" width="744.094" transform="rotate(-106 594.275 -165.078)" xlink:href="#c"/><use height="1052.362" width="744.094" transform="rotate(-105 594.275 -165.078)" xlink:href="#c"/><use height="1052.362" width="744.094" transform="rotate(-104 594.275 -165.078)" xlink:href="#c"/><use height="1052.362" width="744.094" transform="rotate(-103 594.275 -165.078)" xlink:href="#c"/><use height="1052.362" width="744.094" transform="rotate(-102 594.275 -165.078)" xlink:href="#c"/><use height="1052.362" width="744.094" transform="rotate(-101 594.275 -165.078)" xlink:href="#c"/><use height="1052.362" width="744.094" transform="rotate(-100 594.275 -165.078)" xlink:href="#c"/><use height="1052.362" width="744.094" transform="rotate(-99 594.275 -165.078)" xlink:href="#c"/><use height="1052.362" width="744.094" transform="rotate(-98 594.275 -165.078)" xlink:href="#c"/><use height="1052.362" width="744.094" transform="rotate(-97 594.275 -165.078)" xlink:href="#c"/><use height="1052.362" width="744.094" transform="rotate(-96 594.275 -165.078)" xlink:href="#c"/><use height="1052.362" width="744.094" transform="rotate(-95 594.275 -165.078)" xlink:href="#c"/><use height="1052.362" width="744.094" transform="rotate(-94 594.275 -165.078)" xlink:href="#c"/><use height="1052.362" width="744.094" transform="rotate(-93 594.275 -165.078)" xlink:href="#c"/><use height="1052.362" width="744.094" transform="rotate(-92 594.275 -165.078)" xlink:href="#c"/><use height="1052.362" width="744.094" transform="rotate(-91 594.275 -165.078)" xlink:href="#c"/><use height="1052.362" width="744.094" transform="rotate(-90 594.275 -165.078)" xlink:href="#c"/><use height="1052.362" width="744.094" transform="rotate(-89 594.275 -165.078)" xlink:href="#c"/><use height="1052.362" width="744.094" transform="rotate(-88 594.275 -165.078)" xlink:href="#c"/><use height="1052.362" width="744.094" transform="rotate(-87 594.275 -165.078)" xlink:href="#c"/><use height="1052.362" width="744.094" transform="rotate(-86 594.275 -165.078)" xlink:href="#c"/><use height="1052.362" width="744.094" transform="rotate(-85 594.275 -165.078)" xlink:href="#c"/><use height="1052.362" width="744.094" transform="rotate(-84 594.275 -165.078)" xlink:href="#c"/><use height="1052.362" width="744.094" transform="rotate(-83 594.275 -165.078)" xlink:href="#c"/><use height="1052.362" width="744.094" transform="rotate(-82 594.275 -165.078)" xlink:href="#c"/><use height="1052.362" width="744.094" transform="rotate(-81 594.275 -165.078)" xlink:href="#c"/><use height="1052.362" width="744.094" transform="rotate(-80 594.275 -165.078)" xlink:href="#c"/><use height="1052.362" width="744.094" transform="rotate(-79 594.275 -165.078)" xlink:href="#c"/><use height="1052.362" width="744.094" transform="rotate(-78 594.275 -165.078)" xlink:href="#c"/><use height="1052.362" width="744.094" transform="rotate(-77 594.275 -165.078)" xlink:href="#c"/><use height="1052.362" width="744.094" transform="rotate(-76 594.275 -165.078)" xlink:href="#c"/><use height="1052.362" width="744.094" transform="rotate(-75 594.275 -165.078)" xlink:href="#c"/><use height="1052.362" width="744.094" transform="rotate(-74 594.275 -165.078)" xlink:href="#c"/><use height="1052.362" width="744.094" transform="rotate(-73 594.275 -165.078)" xlink:href="#c"/><use height="1052.362" width="744.094" transform="rotate(-72 594.275 -165.078)" xlink:href="#c"/><use height="1052.362" width="744.094" transform="rotate(-71 594.275 -165.078)" xlink:href="#c"/><use height="1052.362" width="744.094" transform="rotate(-70 594.275 -165.078)" xlink:href="#c"/><use height="1052.362" width="744.094" transform="rotate(-69 594.275 -165.078)" xlink:href="#c"/><use height="1052.362" width="744.094" transform="rotate(-68 594.275 -165.078)" xlink:href="#c"/><use height="1052.362" width="744.094" transform="rotate(-67 594.275 -165.078)" xlink:href="#c"/><use height="1052.362" width="744.094" transform="rotate(-66 594.275 -165.078)" xlink:href="#c"/><use height="1052.362" width="744.094" transform="rotate(-65 594.275 -165.078)" xlink:href="#c"/><use height="1052.362" width="744.094" transform="rotate(-64 594.275 -165.078)" xlink:href="#c"/><use height="1052.362" width="744.094" transform="rotate(-63 594.275 -165.078)" xlink:href="#c"/><use height="1052.362" width="744.094" transform="rotate(-62 594.275 -165.078)" xlink:href="#c"/><use height="1052.362" width="744.094" transform="rotate(-61 594.275 -165.078)" xlink:href="#c"/><use height="1052.362" width="744.094" transform="rotate(-60 594.275 -165.078)" xlink:href="#c"/><use height="1052.362" width="744.094" transform="rotate(-59 594.275 -165.078)" xlink:href="#c"/><use height="1052.362" width="744.094" transform="rotate(-58 594.275 -165.078)" xlink:href="#c"/><use height="1052.362" width="744.094" transform="rotate(-57 594.275 -165.078)" xlink:href="#c"/><use height="1052.362" width="744.094" transform="rotate(-56 594.275 -165.078)" xlink:href="#c"/><use height="1052.362" width="744.094" transform="rotate(-55 594.275 -165.078)" xlink:href="#c"/><use height="1052.362" width="744.094" transform="rotate(-54 594.275 -165.078)" xlink:href="#c"/><use height="1052.362" width="744.094" transform="rotate(-53 594.275 -165.078)" xlink:href="#c"/><use height="1052.362" width="744.094" transform="rotate(-52 594.275 -165.078)" xlink:href="#c"/><use height="1052.362" width="744.094" transform="rotate(-51 594.275 -165.078)" xlink:href="#c"/><use height="1052.362" width="744.094" transform="rotate(-50 594.275 -165.078)" xlink:href="#c"/><use height="1052.362" width="744.094" transform="rotate(-49 594.275 -165.078)" xlink:href="#c"/><use height="1052.362" width="744.094" transform="rotate(-48 594.275 -165.078)" xlink:href="#c"/><use height="1052.362" width="744.094" transform="rotate(-47 594.275 -165.078)" xlink:href="#c"/><use height="1052.362" width="744.094" transform="rotate(-46 594.275 -165.078)" xlink:href="#c"/><use height="1052.362" width="744.094" transform="rotate(-45 594.275 -165.078)" xlink:href="#c"/><use height="1052.362" width="744.094" transform="rotate(-44 594.275 -165.078)" xlink:href="#c"/><use height="1052.362" width="744.094" transform="rotate(-43 594.275 -165.078)" xlink:href="#c"/><use height="1052.362" width="744.094" transform="rotate(-42 594.275 -165.078)" xlink:href="#c"/><use height="1052.362" width="744.094" transform="rotate(-41 594.275 -165.078)" xlink:href="#c"/><use height="1052.362" width="744.094" transform="rotate(-40 594.275 -165.078)" xlink:href="#c"/><use height="1052.362" width="744.094" transform="rotate(-39 594.275 -165.078)" xlink:href="#c"/><use height="1052.362" width="744.094" transform="rotate(-38 594.275 -165.078)" xlink:href="#c"/><use height="1052.362" width="744.094" transform="rotate(-37 594.275 -165.078)" xlink:href="#c"/><use height="1052.362" width="744.094" transform="rotate(-36 594.275 -165.078)" xlink:href="#c"/><use height="1052.362" width="744.094" transform="rotate(-35 594.275 -165.078)" xlink:href="#c"/><use height="1052.362" width="744.094" transform="rotate(-34 594.275 -165.078)" xlink:href="#c"/><use height="1052.362" width="744.094" transform="rotate(-33 594.275 -165.078)" xlink:href="#c"/><use height="1052.362" width="744.094" transform="rotate(-32 594.275 -165.078)" xlink:href="#c"/><use height="1052.362" width="744.094" transform="rotate(-31 594.275 -165.078)" xlink:href="#c"/><use height="1052.362" width="744.094" transform="rotate(-30 594.275 -165.078)" xlink:href="#c"/><use height="1052.362" width="744.094" transform="rotate(-29 594.275 -165.078)" xlink:href="#c"/><use height="1052.362" width="744.094" transform="rotate(-28 594.275 -165.078)" xlink:href="#c"/><use height="1052.362" width="744.094" transform="rotate(-27 594.275 -165.078)" xlink:href="#c"/><use height="1052.362" width="744.094" transform="rotate(-26 594.275 -165.078)" xlink:href="#c"/><use height="1052.362" width="744.094" transform="rotate(-25 594.275 -165.078)" xlink:href="#c"/><use height="1052.362" width="744.094" transform="rotate(-24 594.275 -165.078)" xlink:href="#c"/><use height="1052.362" width="744.094" transform="rotate(-23 594.275 -165.078)" xlink:href="#c"/><use height="1052.362" width="744.094" transform="rotate(-22 594.275 -165.078)" xlink:href="#c"/><use height="1052.362" width="744.094" transform="rotate(-21 594.275 -165.078)" xlink:href="#c"/><use height="1052.362" width="744.094" transform="rotate(-20 594.275 -165.078)" xlink:href="#c"/><use height="1052.362" width="744.094" transform="rotate(-19 594.275 -165.078)" xlink:href="#c"/><use height="1052.362" width="744.094" transform="rotate(-18 594.275 -165.078)" xlink:href="#c"/><use height="1052.362" width="744.094" transform="rotate(-17 594.275 -165.078)" xlink:href="#c"/><use height="1052.362" width="744.094" transform="rotate(-16 594.275 -165.078)" xlink:href="#c"/><use height="1052.362" width="744.094" transform="rotate(-15 594.275 -165.078)" xlink:href="#c"/><use height="1052.362" width="744.094" transform="rotate(-14 594.275 -165.078)" xlink:href="#c"/><use height="1052.362" width="744.094" transform="rotate(-13 594.275 -165.078)" xlink:href="#c"/><use height="1052.362" width="744.094" transform="rotate(-12 594.275 -165.078)" xlink:href="#c"/><use height="1052.362" width="744.094" transform="rotate(-11 594.275 -165.078)" xlink:href="#c"/><use height="1052.362" width="744.094" transform="rotate(-10 594.275 -165.078)" xlink:href="#c"/><use height="1052.362" width="744.094" transform="rotate(-9 594.275 -165.078)" xlink:href="#c"/><use height="1052.362" width="744.094" transform="rotate(-8 594.275 -165.078)" xlink:href="#c"/><use height="1052.362" width="744.094" transform="rotate(-7 594.275 -165.078)" xlink:href="#c"/><use height="1052.362" width="744.094" transform="rotate(-6 594.275 -165.078)" xlink:href="#c"/><use height="1052.362" width="744.094" transform="rotate(-5 594.275 -165.078)" xlink:href="#c"/><use height="1052.362" width="744.094" transform="rotate(-4 594.275 -165.078)" xlink:href="#c"/><use height="1052.362" width="744.094" transform="rotate(-3 594.275 -165.078)" xlink:href="#c"/><use height="1052.362" width="744.094" transform="rotate(-2 594.275 -165.078)" xlink:href="#c"/><use height="1052.362" width="744.094" transform="rotate(-1 594.275 -165.078)" xlink:href="#c"/></g><g font-size="12" font-weight="400" letter-spacing="0" word-spacing="0" text-anchor="middle" font-family="Sans"><text y="176.862" x="493.123" style="text-align:center;line-height:125%;-inkscape-font-specification:Sans" transform="translate(-287.185 -127.489)"><tspan y="176.862" x="493.123">0</tspan></text><text y="179.202" x="520.904" style="text-align:center;line-height:125%;-inkscape-font-specification:Sans" transform="translate(-287.185 -127.489)"><tspan y="179.202" x="520.904">10</tspan></text><text y="186.385" x="548.336" style="text-align:center;line-height:125%;-inkscape-font-specification:Sans" transform="translate(-287.185 -127.489)"><tspan y="186.385" x="548.336">20</tspan></text><text y="198.216" x="573.856" style="text-align:center;line-height:125%;-inkscape-font-specification:Sans" transform="translate(-287.185 -127.489)"><tspan y="198.216" x="573.856">30</tspan></text><text y="214.305" x="597.109" style="text-align:center;line-height:125%;-inkscape-font-specification:Sans" transform="translate(-287.185 -127.489)"><tspan y="214.305" x="597.109">40</tspan></text><text y="234.141" x="616.898" style="text-align:center;line-height:125%;-inkscape-font-specification:Sans" transform="translate(-287.185 -127.489)"><tspan y="234.141" x="616.898">50</tspan></text><text y="257.13" x="633.173" style="text-align:center;line-height:125%;-inkscape-font-specification:Sans" transform="translate(-287.185 -127.489)"><tspan y="257.13" x="633.173">60</tspan></text><text y="282.594" x="645.089" style="text-align:center;line-height:125%;-inkscape-font-specification:Sans" transform="translate(-287.185 -127.489)"><tspan y="282.594" x="645.089">70</tspan></text><text y="309.761" x="652.527" style="text-align:center;line-height:125%;-inkscape-font-specification:Sans" transform="translate(-287.185 -127.489)"><tspan y="309.761" x="652.527">80</tspan></text><text y="337.79" x="655.069" style="text-align:center;line-height:125%;-inkscape-font-specification:Sans" transform="translate(-287.185 -127.489)"><tspan y="337.79" x="655.069">90</tspan></text><text y="365.834" x="652.448" style="text-align:center;line-height:125%;-inkscape-font-specification:Sans" transform="translate(-287.185 -127.489)"><tspan y="365.834" x="652.448">100</tspan></text><text y="393.047" x="645.265" style="text-align:center;line-height:125%;-inkscape-font-specification:Sans" transform="translate(-287.185 -127.489)"><tspan y="393.047" x="645.265">110</tspan></text><text y="418.585" x="633.434" style="text-align:center;line-height:125%;-inkscape-font-specification:Sans" transform="translate(-287.185 -127.489)"><tspan y="418.585" x="633.434">120</tspan></text><text y="441.674" x="617.345" style="text-align:center;line-height:125%;-inkscape-font-specification:Sans" transform="translate(-287.185 -127.489)"><tspan y="441.674" x="617.345">130</tspan></text><text y="461.632" x="597.509" style="text-align:center;line-height:125%;-inkscape-font-specification:Sans" transform="translate(-287.185 -127.489)"><tspan y="461.632" x="597.509">140</tspan></text><text y="477.864" x="574.52" style="text-align:center;line-height:125%;-inkscape-font-specification:Sans" transform="translate(-287.185 -127.489)"><tspan y="477.864" x="574.52">150</tspan></text><text y="489.853" x="549.056" style="text-align:center;line-height:125%;-inkscape-font-specification:Sans" transform="translate(-287.185 -127.489)"><tspan y="489.853" x="549.056">160</tspan></text><text y="497.206" x="521.889" style="text-align:center;line-height:125%;-inkscape-font-specification:Sans" transform="translate(-287.185 -127.489)"><tspan y="497.206" x="521.889">170</tspan></text><text y="499.718" x="493.86" style="text-align:center;line-height:125%;-inkscape-font-specification:Sans" transform="translate(-287.185 -127.489)"><tspan y="499.718" x="493.86">180</tspan></text><text y="497.378" x="465.816" style="text-align:center;line-height:125%;-inkscape-font-specification:Sans" transform="translate(-287.185 -127.489)"><tspan y="497.378" x="465.816">190</tspan></text><text y="490.195" x="438.823" style="text-align:center;line-height:125%;-inkscape-font-specification:Sans" transform="translate(-287.185 -127.489)"><tspan y="490.195" x="438.823">200</tspan></text><text y="478.364" x="413.285" style="text-align:center;line-height:125%;-inkscape-font-specification:Sans" transform="translate(-287.185 -127.489)"><tspan y="478.364" x="413.285">210</tspan></text><text y="462.275" x="390.196" style="text-align:center;line-height:125%;-inkscape-font-specification:Sans" transform="translate(-287.185 -127.489)"><tspan y="462.275" x="390.196">220</tspan></text><text y="442.439" x="370.237" style="text-align:center;line-height:125%;-inkscape-font-specification:Sans" transform="translate(-287.185 -127.489)"><tspan y="442.439" x="370.237">230</tspan></text><text y="419.45" x="354.006" style="text-align:center;line-height:125%;-inkscape-font-specification:Sans" transform="translate(-287.185 -127.489)"><tspan y="419.45" x="354.006">240</tspan></text><text y="393.987" x="342.017" style="text-align:center;line-height:125%;-inkscape-font-specification:Sans" transform="translate(-287.185 -127.489)"><tspan y="393.987" x="342.017">250</tspan></text><text y="366.819" x="334.664" style="text-align:center;line-height:125%;-inkscape-font-specification:Sans" transform="translate(-287.185 -127.489)"><tspan y="366.819" x="334.664">260</tspan></text><text y="338.79" x="332.152" style="text-align:center;line-height:125%;-inkscape-font-specification:Sans" transform="translate(-287.185 -127.489)"><tspan y="338.79" x="332.152">270</tspan></text><text y="310.746" x="334.491" style="text-align:center;line-height:125%;-inkscape-font-specification:Sans" transform="translate(-287.185 -127.489)"><tspan y="310.746" x="334.491">280</tspan></text><text y="283.533" x="341.675" style="text-align:center;line-height:125%;-inkscape-font-specification:Sans" transform="translate(-287.185 -127.489)"><tspan y="283.533" x="341.675">290</tspan></text><text y="257.996" x="353.488" style="text-align:center;line-height:125%;-inkscape-font-specification:Sans" transform="translate(-287.185 -127.489)"><tspan y="257.996" x="353.488">300</tspan></text><text y="234.907" x="369.577" style="text-align:center;line-height:125%;-inkscape-font-specification:Sans" transform="translate(-287.185 -127.489)"><tspan y="234.907" x="369.577">310</tspan></text><text y="214.948" x="389.413" style="text-align:center;line-height:125%;-inkscape-font-specification:Sans" transform="translate(-287.185 -127.489)"><tspan y="214.948" x="389.413">320</tspan></text><text y="198.717" x="412.402" style="text-align:center;line-height:125%;-inkscape-font-specification:Sans" transform="translate(-287.185 -127.489)"><tspan y="198.717" x="412.402">330</tspan></text><text y="186.727" x="437.865" style="text-align:center;line-height:125%;-inkscape-font-specification:Sans" transform="translate(-287.185 -127.489)"><tspan y="186.727" x="437.865">340</tspan></text><text y="179.375" x="465.033" style="text-align:center;line-height:125%;-inkscape-font-specification:Sans" transform="translate(-287.185 -127.489)"><tspan y="179.375" x="465.033">350</tspan></text></g></svg>